# xmcd
#
# Track frame offsets:
#	150
#	18022
#	32042
#	51934
#	67130
#	83801
#	98221
#	134764
#	154094
#	170152
#	189966
#	222720
#
# Disc length: 3357 seconds
#
# Revision: 0
# Processed by: cddbd v1.5PL3 Copyright (c) Steve Scherf et al.
# Submitted via: dBpowerAMP V4.0
#
DISCID=ad0d1b0c
DTITLE=Warren Von Kruck (Soul Shake) - Tattooed White Trash
DYEAR=1900
DGENRE=Blues
TTITLE0=Daddy's Working Overtime
TTITLE1=Super Human Man
TTITLE2=For A Change
TTITLE3=Recipe For Love
TTITLE4=Answering Machine Blues
TTITLE5=Daddy's Working Overtime Live
TTITLE6=Faithfully
TTITLE7=I Can't Wait Live at the Jam House
TTITLE8=Cleopatra
TTITLE9=For A Change
TTITLE10=I Got To Groove With You
TTITLE11=DATA
EXTD=
EXTT0=
EXTT1=
EXTT2=
EXTT3=
EXTT4=
EXTT5=
EXTT6=
EXTT7=
EXTT8=
EXTT9=
EXTT10=
EXTT11=
PLAYORDER=
